<svg xmlns="http://www.w3.org/2000/svg" width="74" height="74" viewBox="0 0 74 74" fill="none">
  <path d="M 71.624 28.753 C 71.208 27.986 70.78 27.265 70.376 26.584 C 69.766 25.559 69.192 24.594 68.864 23.8 C 68.684 23.364 68.519 22.862 68.36 22.318 C 68.2 21.774 68.047 21.19 67.891 20.587 C 67.791 20.207 67.689 19.816 67.581 19.418 C 66.819 16.622 65.741 13.414 63.165 10.836 C 60.957 8.626 58.281 7.519 55.804 6.769 C 54.979 6.519 54.175 6.31 53.416 6.11 C 53.115 6.031 52.818 5.953 52.528 5.876 C 51.659 5.641 50.855 5.406 50.203 5.136 C 50.004 5.053 49.796 4.955 49.577 4.847 C 49.14 4.627 48.669 4.36 48.175 4.071 C 47.927 3.928 47.675 3.777 47.42 3.625 C 46.399 3.019 45.286 2.358 44.065 1.769 C 42.03 0.786 39.697 0 37.003 0 C 34.309 0 31.975 0.786 29.94 1.769 C 28.719 2.358 27.606 3.021 26.585 3.625 C 26.33 3.777 26.078 3.928 25.83 4.071 C 25.336 4.36 24.863 4.627 24.428 4.847 C 24.209 4.957 24.001 5.055 23.801 5.136 C 23.367 5.316 22.864 5.48 22.321 5.639 C 21.778 5.798 21.192 5.952 20.589 6.109 C 19.83 6.306 19.026 6.518 18.199 6.768 C 16.546 7.268 14.807 7.927 13.176 8.966 C 12.36 9.484 11.572 10.099 10.837 10.834 C 7.892 13.779 6.905 17.551 6.111 20.583 C 5.797 21.788 5.499 22.927 5.137 23.797 C 5.055 23.994 4.958 24.204 4.848 24.42 C 4.52 25.074 4.085 25.807 3.629 26.574 C 2.82 27.937 1.912 29.465 1.207 31.191 C 0.854 32.054 0.553 32.967 0.34 33.933 C 0.126 34.899 0 35.92 0 36.997 C 0 40.772 1.539 43.834 3.007 46.363 C 3.217 46.725 3.424 47.075 3.626 47.416 C 3.93 47.928 4.226 48.426 4.487 48.894 C 4.747 49.362 4.973 49.803 5.137 50.2 C 5.319 50.636 5.484 51.139 5.642 51.683 C 5.802 52.227 5.953 52.813 6.111 53.415 C 6.21 53.793 6.313 54.184 6.421 54.582 C 6.638 55.38 6.881 56.212 7.177 57.054 C 7.919 59.157 8.994 61.321 10.835 63.163 C 12.308 64.636 13.986 65.619 15.676 66.332 C 17.367 67.047 19.067 67.491 20.582 67.888 C 21.794 68.204 22.93 68.503 23.797 68.863 C 24.194 69.028 24.635 69.253 25.104 69.513 C 25.573 69.773 26.069 70.069 26.58 70.373 C 27.601 70.979 28.714 71.64 29.935 72.231 C 31.97 73.214 34.304 74 36.998 74 C 39.692 74 42.026 73.214 44.061 72.231 C 45.282 71.642 46.395 70.979 47.416 70.373 C 47.674 70.221 47.926 70.071 48.173 69.925 C 48.667 69.636 49.14 69.369 49.574 69.15 C 49.791 69.04 49.999 68.944 50.196 68.861 C 50.63 68.68 51.133 68.516 51.676 68.357 C 52.219 68.199 52.804 68.045 53.405 67.888 C 54.545 67.589 55.788 67.264 57.05 66.818 C 57.471 66.67 57.895 66.508 58.318 66.33 C 60.009 65.616 61.689 64.632 63.162 63.159 C 66.106 60.215 67.095 56.442 67.887 53.413 C 68.203 52.205 68.501 51.067 68.863 50.197 C 69.192 49.403 69.766 48.436 70.374 47.414 C 71.182 46.053 72.088 44.527 72.793 42.8 C 73.144 41.937 73.447 41.025 73.66 40.059 C 73.874 39.092 74 38.072 74 36.994 C 74 33.762 72.87 31.049 71.624 28.747 L 71.624 28.753 Z M 70.682 39.499 C 70.499 40.297 70.24 41.06 69.934 41.794 C 69.322 43.26 68.521 44.608 67.769 45.87 C 67.603 46.151 67.44 46.426 67.282 46.698 C 66.806 47.514 66.374 48.296 66.066 49.041 C 65.625 50.104 65.301 51.34 64.961 52.65 C 64.593 54.057 64.199 55.559 63.602 57.005 C 63.155 58.089 62.593 59.142 61.842 60.1 C 61.591 60.419 61.319 60.728 61.024 61.024 C 59.842 62.206 58.453 63.007 57.007 63.604 C 55.561 64.2 54.059 64.594 52.65 64.962 C 52.322 65.048 52 65.132 51.683 65.217 C 50.892 65.43 50.147 65.654 49.456 65.913 C 49.318 65.965 49.175 66.013 49.042 66.068 C 48.794 66.171 48.541 66.288 48.286 66.415 C 47.517 66.796 46.712 67.275 45.872 67.773 C 43.347 69.275 40.481 70.974 37.003 70.974 C 33.526 70.974 30.66 69.275 28.133 67.773 C 27.293 67.275 26.49 66.796 25.719 66.415 C 25.464 66.288 25.212 66.171 24.963 66.068 C 24.83 66.013 24.687 65.965 24.549 65.913 C 23.858 65.654 23.113 65.43 22.321 65.217 C 22.005 65.131 21.682 65.048 21.354 64.962 C 19.946 64.594 18.445 64.2 16.998 63.604 C 15.552 63.007 14.163 62.206 12.981 61.024 C 12.685 60.728 12.414 60.419 12.163 60.1 C 11.412 59.142 10.85 58.089 10.403 57.005 C 9.806 55.559 9.414 54.057 9.046 52.65 C 8.704 51.34 8.38 50.104 7.939 49.041 C 7.837 48.793 7.721 48.541 7.593 48.284 C 7.339 47.771 7.041 47.244 6.723 46.7 C 6.565 46.428 6.4 46.152 6.234 45.872 C 5.859 45.24 5.47 44.588 5.1 43.909 C 4.731 43.231 4.377 42.527 4.071 41.794 C 3.765 41.06 3.506 40.297 3.323 39.499 C 3.14 38.702 3.034 37.871 3.034 37.001 C 3.034 33.957 4.335 31.384 5.666 29.095 C 5.856 28.767 6.046 28.446 6.234 28.13 C 6.4 27.851 6.564 27.574 6.723 27.302 C 7.041 26.758 7.339 26.229 7.593 25.717 C 7.721 25.461 7.837 25.209 7.939 24.961 C 8.38 23.896 8.704 22.66 9.046 21.35 C 9.691 18.887 10.411 16.134 12.165 13.9 C 12.416 13.581 12.688 13.272 12.982 12.978 C 13.574 12.387 14.217 11.892 14.893 11.469 C 16.921 10.202 19.243 9.594 21.357 9.04 C 21.683 8.954 22.006 8.869 22.322 8.785 C 22.639 8.699 22.95 8.612 23.252 8.525 C 23.858 8.346 24.433 8.155 24.964 7.935 C 25.709 7.626 26.491 7.197 27.307 6.72 C 27.579 6.562 27.855 6.398 28.134 6.23 C 29.081 5.668 30.077 5.077 31.133 4.558 C 31.486 4.386 31.844 4.22 32.211 4.066 C 33.677 3.453 35.263 3.029 37.003 3.029 C 38.744 3.029 40.328 3.455 41.794 4.066 C 42.161 4.22 42.521 4.384 42.872 4.558 C 43.93 5.077 44.924 5.668 45.872 6.23 C 46.152 6.398 46.427 6.562 46.7 6.72 C 47.515 7.197 48.296 7.628 49.042 7.935 C 50.105 8.376 51.341 8.7 52.651 9.043 C 53.003 9.136 53.361 9.229 53.722 9.327 C 55.892 9.915 58.186 10.658 60.101 12.162 C 60.421 12.412 60.728 12.684 61.024 12.98 C 61.32 13.275 61.591 13.584 61.842 13.902 C 63.596 16.135 64.315 18.887 64.959 21.352 C 65.301 22.661 65.625 23.896 66.066 24.961 C 66.168 25.211 66.286 25.462 66.412 25.719 C 66.666 26.231 66.964 26.76 67.282 27.304 C 67.44 27.576 67.605 27.851 67.769 28.132 C 67.958 28.448 68.148 28.768 68.338 29.096 C 69.67 31.385 70.971 33.958 70.971 37.003 C 70.971 37.873 70.865 38.704 70.682 39.501 L 70.682 39.499 Z" fill="currentColor" fill-rule="nonzero"/>
  <path d="M 28.324 24.565 C 28.933 24.547 29.542 24.516 30.147 24.481 C 30.753 24.445 31.36 24.408 31.968 24.376 C 32.273 24.361 32.576 24.346 32.88 24.336 C 34.398 24.278 35.915 24.293 37.414 24.532 C 37.809 24.596 38.202 24.675 38.594 24.775 C 38.841 24.837 39.087 24.908 39.331 24.986 C 41.034 25.53 42.608 26.451 43.72 27.831 C 44.014 28.196 44.275 28.591 44.524 28.995 C 44.771 29.399 45.006 29.813 45.252 30.216 C 45.619 30.823 46.005 31.409 46.488 31.909 C 46.649 32.076 46.819 32.234 47.004 32.379 C 48.017 33.176 49.328 33.519 50.615 33.57 C 51.259 33.597 51.901 33.555 52.54 33.48 C 53.179 33.406 53.818 33.298 54.452 33.19 C 54.725 33.144 55.021 33.083 55.196 32.87 C 55.355 32.674 55.367 32.409 55.32 32.152 C 55.305 32.066 55.281 31.983 55.256 31.902 C 55.16 31.597 55.032 31.308 54.883 31.029 C 53.828 29.083 51.632 27.706 51.099 25.532 C 51.074 25.425 51.054 25.312 51.045 25.199 C 51.037 25.086 51.039 24.971 51.055 24.863 C 51.072 24.755 51.104 24.652 51.153 24.56 C 51.202 24.469 51.271 24.39 51.361 24.329 C 51.577 24.184 51.826 24.192 52.086 24.241 C 52.174 24.256 52.261 24.278 52.35 24.298 C 52.465 24.326 52.579 24.351 52.693 24.368 C 52.808 24.385 52.922 24.393 53.033 24.383 C 53.282 24.361 53.497 24.241 53.667 24.065 C 53.724 24.006 53.775 23.942 53.82 23.873 C 53.956 23.665 54.04 23.413 54.055 23.162 C 54.06 23.077 54.059 22.994 54.049 22.912 C 54.029 22.746 53.983 22.589 53.919 22.437 C 53.729 21.984 53.373 21.595 52.984 21.28 C 51.925 20.418 50.596 19.953 49.269 19.629 C 46.651 18.985 43.942 18.82 41.243 18.82 C 40.903 18.82 40.562 18.822 40.222 18.827 C 39.524 18.837 38.825 18.854 38.127 18.879 C 35.333 18.984 32.544 19.229 29.779 19.634 C 28.397 19.837 27.019 20.078 25.652 20.364 C 24.968 20.506 24.287 20.66 23.607 20.823 C 22.523 21.087 19.926 22.074 21.514 23.494 C 21.897 23.837 22.405 23.999 22.903 24.123 C 24.376 24.488 25.889 24.592 27.409 24.584 C 27.714 24.584 28.018 24.577 28.323 24.567 L 28.324 24.565 Z" fill="currentColor" fill-rule="nonzero"/>
  <path d="M 41.471 34.926 C 41.707 34.715 41.942 34.475 42.021 34.168 C 42.05 34.058 42.057 33.945 42.05 33.832 C 42.043 33.723 42.023 33.615 41.998 33.509 C 41.971 33.403 41.939 33.296 41.905 33.191 C 41.816 32.906 41.722 32.615 41.618 32.33 C 41.303 31.472 40.886 30.654 40.155 30.132 C 39.526 29.684 38.756 29.524 37.975 29.461 C 37.715 29.441 37.454 29.431 37.197 29.426 C 36.965 29.421 36.731 29.419 36.497 29.419 C 34.235 29.419 31.972 29.64 29.752 30.074 C 28.891 30.245 27.934 30.468 27.105 30.887 C 26.774 31.054 26.463 31.252 26.185 31.49 C 26.047 31.608 25.918 31.738 25.798 31.877 C 25.265 32.502 24.909 33.519 24.941 34.457 C 24.954 34.832 25.028 35.195 25.18 35.514 C 25.255 35.675 25.349 35.823 25.464 35.959 C 25.817 36.371 26.315 36.609 26.834 36.783 C 27.007 36.84 27.184 36.893 27.357 36.94 C 27.954 37.106 28.56 37.253 29.168 37.376 C 30.69 37.687 32.241 37.854 33.786 37.793 C 34.096 37.781 34.405 37.761 34.713 37.729 C 35.638 37.636 36.561 37.452 37.449 37.17 C 38.931 36.7 40.318 35.959 41.47 34.921 L 41.471 34.926 Z" fill="currentColor" fill-rule="nonzero"/>
  <path d="M 49.33 44.639 C 49.444 44.575 49.552 44.507 49.655 44.436 C 50.062 44.149 50.368 43.797 50.546 43.37 C 50.591 43.264 50.627 43.152 50.655 43.035 C 50.712 42.802 50.736 42.551 50.724 42.279 C 50.697 41.642 50.68 41.001 50.665 40.361 C 50.65 39.67 50.41 39.15 49.988 38.771 C 49.903 38.695 49.811 38.625 49.713 38.56 C 49.517 38.43 49.291 38.322 49.042 38.233 C 48.205 37.934 47.362 37.645 46.518 37.364 C 46.083 37.221 45.652 37.151 45.227 37.151 C 44.909 37.151 44.594 37.19 44.282 37.266 C 43.971 37.342 43.661 37.455 43.357 37.602 C 42.782 37.883 42.206 38.16 41.635 38.442 C 41.063 38.726 40.493 39.013 39.928 39.315 C 39.465 39.562 39.043 39.902 38.653 40.256 C 38.281 40.594 38.13 41.059 38.149 41.574 C 38.162 41.942 38.15 42.311 38.15 42.657 C 38.13 43.046 38.113 43.414 38.088 43.781 C 38.08 43.904 38.085 44.024 38.102 44.139 C 38.137 44.367 38.224 44.573 38.367 44.743 C 38.44 44.828 38.525 44.904 38.626 44.97 C 38.83 45.102 39.045 45.223 39.267 45.33 C 39.489 45.436 39.718 45.527 39.95 45.597 C 41.023 45.921 42.111 46.203 43.202 46.458 C 43.676 46.568 44.177 46.61 44.665 46.614 C 45.01 46.615 45.343 46.563 45.667 46.47 C 45.992 46.377 46.305 46.244 46.609 46.083 C 47.517 45.603 48.432 45.139 49.327 44.639 L 49.33 44.639 Z" fill="currentColor" fill-rule="nonzero"/>
  <path d="M 55.549 47.631 C 55.11 47.315 54.671 46.992 54.246 46.658 C 53.971 46.441 53.691 46.315 53.405 46.264 C 53.31 46.247 53.215 46.239 53.119 46.239 C 52.872 46.239 52.621 46.31 52.37 46.413 C 52.286 46.447 52.204 46.47 52.12 46.516 C 50.96 47.138 49.811 47.785 48.679 48.457 C 48.321 48.67 48.007 48.93 47.753 49.239 C 47.626 49.393 47.514 49.56 47.42 49.741 C 47.325 49.922 47.248 50.114 47.189 50.32 C 46.918 51.271 46.661 52.224 46.407 53.177 C 46.296 53.593 46.315 53.958 46.456 54.268 C 46.597 54.579 46.861 54.836 47.245 55.037 C 47.63 55.24 48.013 55.449 48.397 55.655 C 48.78 55.863 49.165 56.068 49.555 56.26 C 49.885 56.424 50.26 56.502 50.611 56.618 C 51.008 56.569 51.365 56.461 51.708 56.318 C 51.822 56.27 51.942 56.235 52.051 56.174 C 52.463 55.948 52.872 55.718 53.282 55.488 C 53.692 55.26 54.104 55.034 54.513 54.802 C 55.328 54.343 55.788 53.626 55.941 52.718 C 56.109 51.734 56.262 50.748 56.385 49.758 C 56.489 48.911 56.292 48.158 55.549 47.627 L 55.549 47.631 Z" fill="currentColor" fill-rule="nonzero"/>
  <path d="M 59.766 41.554 C 59.662 40.888 59.528 40.204 59.324 39.552 C 59.257 39.334 59.181 39.121 59.097 38.912 C 58.761 38.077 58.281 37.327 57.572 36.775 C 57.436 36.668 57.276 36.567 57.106 36.567 C 57.088 36.567 57.067 36.567 57.047 36.57 C 56.913 36.589 56.798 36.673 56.694 36.759 C 56.457 36.955 56.248 37.182 56.067 37.432 C 55.34 38.43 55.044 39.802 55.132 41.125 C 55.154 41.456 55.199 41.784 55.268 42.101 C 55.404 42.738 55.635 43.335 55.949 43.841 C 56.168 44.191 56.438 44.502 56.739 44.786 C 57.04 45.068 57.372 45.323 57.71 45.559 C 57.831 45.644 57.96 45.73 58.107 45.749 C 58.251 45.769 58.396 45.722 58.529 45.661 C 59.228 45.336 59.667 44.602 59.82 43.85 C 59.859 43.661 59.881 43.471 59.893 43.281 C 59.909 42.995 59.898 42.706 59.872 42.417 C 59.847 42.128 59.807 41.841 59.763 41.556 L 59.766 41.554 Z" fill="currentColor" fill-rule="nonzero"/>
</svg>
