<svg xmlns="http://www.w3.org/2000/svg" width="101.937" height="101.940" viewBox="0 0 101.937 101.940" fill="none">
  <path d="M 36.616 4.987 C 35.209 5.823 33.877 6.615 32.782 7.067 C 31.583 7.565 30.017 7.973 28.358 8.411 C 24.181 9.506 18.984 10.865 14.927 14.926 C 10.869 18.982 9.507 24.179 8.417 28.354 C 7.986 30.017 7.575 31.584 7.075 32.784 C 6.624 33.874 5.836 35.203 4.999 36.606 C 2.769 40.364 0 45.022 0 50.965 C 0 56.908 2.769 61.566 4.994 65.314 C 5.831 66.722 6.624 68.056 7.075 69.146 C 7.575 70.346 7.981 71.913 8.417 73.576 C 9.512 77.752 10.869 82.948 14.927 87.009 C 18.984 91.065 24.181 92.424 28.353 93.519 C 30.022 93.957 31.588 94.365 32.782 94.863 C 33.877 95.316 35.204 96.107 36.616 96.943 C 40.362 99.168 45.028 101.94 50.968 101.94 C 56.908 101.94 61.57 99.168 65.321 96.943 C 66.738 96.102 68.065 95.311 69.15 94.863 C 70.349 94.365 71.91 93.957 73.569 93.524 C 77.761 92.429 82.953 91.07 87.01 87.014 C 91.067 82.958 92.425 77.761 93.52 73.586 C 93.956 71.923 94.367 70.356 94.862 69.156 C 95.318 68.061 96.106 66.732 96.943 65.324 C 99.168 61.576 101.937 56.913 101.937 50.97 C 101.937 45.027 99.168 40.369 96.948 36.626 C 96.106 35.213 95.318 33.879 94.862 32.789 C 94.367 31.589 93.956 30.022 93.52 28.359 C 92.425 24.179 91.067 18.982 87.01 14.926 C 82.953 10.865 77.761 9.506 73.584 8.416 C 71.925 7.983 70.354 7.57 69.155 7.072 C 68.06 6.619 66.733 5.828 65.321 4.992 C 61.575 2.767 56.908 0 50.968 0 C 45.028 0 40.371 2.767 36.616 4.992 L 36.616 4.987 Z M 31.548 33.217 C 30.864 33.048 30.161 32.824 29.636 32.351 C 27.451 30.395 31.023 29.036 32.519 28.673 C 40.005 26.861 47.709 26.025 55.407 25.92 C 59.589 25.866 63.81 26.03 67.872 27.03 C 69.7 27.478 71.523 28.115 72.985 29.305 C 73.698 29.887 74.332 30.644 74.451 31.555 C 74.565 32.465 73.966 33.496 73.054 33.58 C 72.747 33.61 72.43 33.535 72.113 33.466 C 71.622 33.351 71.142 33.242 70.745 33.51 C 70.245 33.849 70.24 34.581 70.384 35.168 C 71.221 38.592 75.056 40.578 76.111 43.942 C 76.25 44.385 76.319 44.913 76.027 45.271 C 75.784 45.565 75.378 45.65 75.001 45.714 C 73.252 46.013 71.489 46.307 69.715 46.237 C 67.941 46.167 66.138 45.694 64.741 44.594 C 62.71 42.992 61.843 40.344 60.218 38.328 C 58.464 36.153 55.883 34.81 53.158 34.118 C 52.618 33.978 52.078 33.869 51.533 33.784 C 48.234 33.257 44.865 33.52 41.526 33.715 C 40.203 33.789 38.87 33.854 37.538 33.854 C 35.516 33.854 33.505 33.705 31.548 33.217 L 31.548 33.217 Z M 37.681 50.88 C 36.725 50.617 35.72 50.283 35.071 49.527 C 33.802 48.039 34.357 45.281 35.531 43.903 C 36.844 42.36 39.078 41.797 40.976 41.419 C 44.35 40.757 47.793 40.458 51.231 40.523 C 52.648 40.553 54.149 40.672 55.308 41.499 C 56.651 42.454 57.226 44.137 57.721 45.709 C 57.81 45.998 57.904 46.297 57.919 46.59 C 57.929 46.744 57.919 46.899 57.88 47.053 C 57.771 47.476 57.444 47.805 57.122 48.098 C 54.58 50.383 51.211 51.627 47.813 51.965 C 47.099 52.04 46.386 52.07 45.672 52.07 C 42.977 52.07 40.282 51.597 37.681 50.875 L 37.681 50.88 Z M 80.044 63.009 C 79.841 62.985 79.663 62.865 79.499 62.751 C 78.568 62.099 77.676 61.352 77.072 60.387 C 75.333 57.599 75.492 52.792 78.097 50.632 C 78.241 50.512 78.4 50.398 78.583 50.373 C 78.846 50.338 79.098 50.492 79.306 50.656 C 81.258 52.174 81.947 54.792 82.328 57.236 C 82.447 58.022 82.551 58.824 82.507 59.615 C 82.492 59.874 82.462 60.138 82.408 60.397 C 82.2 61.432 81.59 62.447 80.629 62.89 C 80.475 62.965 80.312 63.019 80.144 63.019 C 80.114 63.019 80.079 63.019 80.049 63.014 L 80.044 63.009 Z M 61.531 64.199 C 60.857 64.199 60.168 64.134 59.514 63.985 C 58.013 63.632 56.512 63.243 55.036 62.795 C 54.397 62.601 53.773 62.298 53.213 61.934 C 52.658 61.576 52.425 60.979 52.475 60.297 C 52.509 59.789 52.529 59.282 52.559 58.749 C 52.559 58.271 52.574 57.764 52.559 57.256 C 52.534 56.549 52.742 55.907 53.252 55.444 C 53.787 54.957 54.372 54.489 55.006 54.145 C 56.557 53.314 58.147 52.558 59.727 51.786 C 61.129 51.104 62.586 50.96 64.082 51.458 C 65.246 51.841 66.406 52.239 67.56 52.652 C 68.932 53.145 69.765 54.061 69.799 55.584 C 69.819 56.465 69.839 57.346 69.878 58.227 C 69.943 59.73 69.215 60.775 67.956 61.482 C 66.723 62.168 65.464 62.81 64.211 63.472 C 63.379 63.91 62.497 64.204 61.556 64.204 L 61.536 64.204 L 61.531 64.199 Z M 68.258 77.493 C 67.183 76.96 66.138 76.363 65.078 75.805 C 64.023 75.253 63.621 74.387 63.924 73.247 C 64.27 71.933 64.627 70.619 64.999 69.31 C 65.321 68.171 66.064 67.335 67.05 66.742 C 68.605 65.817 70.191 64.926 71.791 64.07 C 72.777 63.537 73.777 63.527 74.714 64.264 C 75.303 64.727 75.903 65.17 76.512 65.608 C 77.533 66.339 77.805 67.379 77.661 68.544 C 77.493 69.908 77.28 71.266 77.052 72.62 C 76.839 73.869 76.205 74.86 75.085 75.492 C 73.961 76.129 72.826 76.756 71.697 77.378 C 71.092 77.712 70.443 77.901 69.71 77.99 C 69.225 77.831 68.709 77.727 68.254 77.498 L 68.258 77.493 Z" fill="currentColor" fill-rule="evenodd"/>
</svg>
