<svg xmlns="http://www.w3.org/2000/svg" fill="#000" stroke="none" width="428.990" height="429" viewBox="0 0 428.990 429">
  <path fill="#000" d="M 214.5 0 C 189.51 0 169.89 11.66 154.12 21.02 C 148.19 24.55 142.58 27.87 137.98 29.78 C 132.94 31.87 126.35 33.6 119.36 35.43 C 101.78 40.03 79.91 45.75 62.84 62.83 C 45.76 79.91 40.03 101.78 35.44 119.35 C 33.61 126.34 31.88 132.94 29.79 137.98 C 27.88 142.57 24.56 148.16 21.05 154.08 C 11.66 169.88 0 189.51 0 214.5 C 0 239.49 11.66 259.12 21.02 274.88 C 24.55 280.82 27.87 286.42 29.78 291.02 C 31.87 296.07 33.6 302.67 35.43 309.65 C 40.02 327.23 45.74 349.1 62.82 366.17 C 79.89 383.25 101.76 388.97 119.32 393.56 C 126.35 395.41 132.94 397.13 137.96 399.21 C 142.56 401.12 148.17 404.45 154.1 407.98 C 169.87 417.34 189.5 429 214.49 429 C 239.48 429 259.12 417.34 274.88 407.98 C 280.84 404.44 286.43 401.12 291.01 399.22 C 296.05 397.13 302.63 395.41 309.6 393.58 C 327.22 388.97 349.09 383.25 366.16 366.17 C 383.24 349.1 388.96 327.23 393.55 309.67 C 395.38 302.67 397.11 296.07 399.2 291.02 C 401.11 286.42 404.44 280.81 407.96 274.89 C 417.33 259.12 428.99 239.49 428.99 214.5 C 428.99 189.51 417.34 169.89 407.97 154.12 C 404.44 148.18 401.11 142.57 399.2 137.97 C 397.1 132.92 395.38 126.33 393.55 119.35 C 388.95 101.77 383.23 79.9 366.15 62.82 C 349.08 45.75 327.21 40.02 309.64 35.43 C 302.65 33.6 296.05 31.87 291 29.78 C 286.4 27.88 280.79 24.55 274.86 21.03 C 259.09 11.66 239.47 0 214.47 0 L 214.5 0 Z M 132.79 139.83 C 129.9 139.12 126.96 138.17 124.74 136.19 C 115.53 127.95 130.59 122.23 136.88 120.71 C 168.38 113.08 200.8 109.55 233.2 109.12 C 250.8 108.88 268.56 109.58 285.66 113.77 C 293.35 115.66 301.04 118.35 307.18 123.34 C 310.18 125.78 312.86 128.97 313.34 132.8 C 313.82 136.63 311.3 140.98 307.46 141.34 C 306.16 141.46 304.82 141.16 303.5 140.85 C 301.44 140.38 299.43 139.9 297.76 141.04 C 295.67 142.46 295.64 145.54 296.24 148 C 299.76 162.42 315.89 170.77 320.34 184.93 C 320.93 186.79 321.23 189.02 319.99 190.53 C 318.98 191.77 317.25 192.12 315.68 192.38 C 308.31 193.64 300.88 194.89 293.42 194.58 C 285.95 194.28 278.35 192.29 272.48 187.67 C 263.93 180.93 260.29 169.78 253.45 161.31 C 246.07 152.15 235.21 146.5 223.73 143.6 C 221.46 143.02 219.18 142.56 216.89 142.19 C 203 139.97 188.82 141.08 174.77 141.88 C 169.2 142.2 163.59 142.48 158 142.48 C 149.49 142.48 141.02 141.85 132.78 139.8 L 132.79 139.83 Z M 158.6 214.17 C 154.56 213.06 150.34 211.66 147.62 208.47 C 142.29 202.21 144.62 190.62 149.55 184.81 C 155.08 178.32 164.48 175.93 172.47 174.36 C 186.67 171.57 201.17 170.31 215.63 170.59 C 221.6 170.71 227.91 171.22 232.78 174.68 C 238.43 178.71 240.84 185.79 242.94 192.42 C 243.32 193.62 243.7 194.88 243.78 196.12 C 243.82 196.78 243.78 197.43 243.62 198.08 C 243.15 199.86 241.79 201.25 240.42 202.48 C 229.73 212.1 215.56 217.32 201.25 218.75 C 198.26 219.05 195.25 219.19 192.25 219.19 C 180.91 219.19 169.57 217.19 158.6 214.17 L 158.6 214.17 Z M 336.88 265.22 C 336.03 265.1 335.28 264.61 334.58 264.12 C 330.66 261.38 326.9 258.23 324.37 254.17 C 317.05 242.44 317.72 222.21 328.68 213.12 C 329.28 212.62 329.95 212.13 330.73 212.02 C 331.83 211.87 332.88 212.52 333.77 213.21 C 341.99 219.6 344.88 230.61 346.48 240.91 C 346.99 244.21 347.43 247.59 347.23 250.92 C 347.17 252.02 347.03 253.12 346.81 254.21 C 345.92 258.58 343.37 262.83 339.33 264.71 C 338.68 265.01 337.98 265.25 337.27 265.25 C 337.14 265.25 337.01 265.25 336.87 265.23 L 336.88 265.22 Z M 258.96 270.22 C 256.13 270.21 253.23 269.96 250.47 269.32 C 244.14 267.84 237.84 266.2 231.61 264.32 C 228.92 263.51 226.3 262.22 223.94 260.69 C 221.6 259.18 220.62 256.67 220.82 253.81 C 220.97 251.67 221.06 249.54 221.18 247.28 C 221.18 245.27 221.24 243.13 221.17 241 C 221.07 238.02 221.95 235.33 224.1 233.37 C 226.36 231.31 228.81 229.34 231.49 227.91 C 238.02 224.42 244.7 221.22 251.36 217.98 C 257.27 215.11 263.4 214.52 269.69 216.59 C 274.59 218.21 279.47 219.89 284.32 221.63 C 290.11 223.69 293.59 227.56 293.74 233.97 C 293.82 237.68 293.92 241.38 294.08 245.09 C 294.34 251.42 291.3 255.82 285.99 258.78 C 280.79 261.68 275.49 264.37 270.23 267.15 C 266.74 268.99 263.03 270.22 259.09 270.22 L 258.97 270.22 L 258.96 270.22 Z M 287.29 326.17 C 282.76 323.92 278.37 321.41 273.89 319.07 C 269.46 316.74 267.76 313.11 269.05 308.29 C 270.52 302.76 272.01 297.24 273.57 291.73 C 274.93 286.93 278.06 283.41 282.22 280.93 C 288.78 277.03 295.44 273.29 302.17 269.67 C 306.33 267.44 310.54 267.39 314.48 270.49 C 316.95 272.44 319.48 274.31 322.04 276.14 C 326.34 279.22 327.49 283.58 326.88 288.49 C 326.18 294.23 325.28 299.94 324.32 305.65 C 323.42 310.9 320.77 315.06 316.04 317.73 C 311.3 320.4 306.54 323.06 301.77 325.68 C 299.22 327.08 296.49 327.87 293.42 328.25 C 291.37 327.58 289.21 327.13 287.3 326.18 L 287.29 326.17 Z" fill="currentColor" fill-rule="evenodd"></path>
</svg>