<svg width="40" height="40" viewBox="0 0 40 40" fill="none" xmlns="http://www.w3.org/2000/svg">
<path fill-rule="evenodd" clip-rule="evenodd" d="M20 40C31.0457 40 40 31.0457 40 20C40 8.9543 31.0457 0 20 0C8.9543 0 0 8.9543 0 20C0 31.0457 8.9543 40 20 40Z" fill="#006FCF"/>
<mask id="mask0_2256_74229" style="mask-type:luminance" maskUnits="userSpaceOnUse" x="0" y="0" width="40" height="40">
<path fill-rule="evenodd" clip-rule="evenodd" d="M20 40C31.0457 40 40 31.0457 40 20C40 8.9543 31.0457 0 20 0C8.9543 0 0 8.9543 0 20C0 31.0457 8.9543 40 20 40Z" fill="white"/>
</mask>
<g mask="url(#mask0_2256_74229)">
<path d="M35.0937 19.4304H38.121V12.3953H34.8273V13.375L34.2039 12.3953H31.3539V13.6421L30.8203 12.3953H25.5664C25.3882 12.3953 25.2101 12.4851 25.0328 12.4851C24.8546 12.4851 24.7648 12.5742 24.5875 12.6625C24.4093 12.7523 24.3195 12.7523 24.1421 12.8406V12.3953H9.09136L8.64604 13.5531L8.20073 12.3953H4.63901V13.6421L4.10542 12.3953H1.25542L0.00854492 15.4234V19.4304H2.0562L2.41245 18.4507H3.12495L3.4812 19.4304H19.1531V18.5398L19.7765 19.4304H24.1398V18.8953C24.2289 18.9851 24.407 18.9851 24.4953 19.0734C24.5851 19.1632 24.7625 19.1632 24.8515 19.2515C25.0296 19.3406 25.207 19.3406 25.3851 19.3406H28.5937L28.9492 18.3617H29.6617L30.0179 19.3406H34.3812V18.45L35.0937 19.4304ZM39.9914 28.3351V21.7453H15.5031L14.8796 22.6359L14.2562 21.7453H7.13276V28.7804H14.2562L14.8796 27.8898L15.5031 28.7804H19.9554V27.2664H19.7773C20.4007 27.2664 20.9351 27.1773 21.3796 26.9992V28.8687H24.5859V27.9781L25.2085 28.8687H38.4773C39.0109 28.6906 39.546 28.6023 39.9914 28.3351Z" fill="white"/>
<path d="M38.4773 26.6429H36.0726V27.6226H38.3882C39.3671 27.6226 39.9906 26.9991 39.9906 26.1085C39.9906 25.2179 39.4554 24.7726 38.5656 24.7726H37.4976C37.2296 24.7726 37.0523 24.5944 37.0523 24.3272C37.0523 24.0601 37.2296 23.8819 37.4976 23.8819H39.5453L39.9906 22.9022H37.5859C36.607 22.9022 35.9835 23.5257 35.9835 24.3272C35.9835 25.2179 36.5171 25.6632 37.4078 25.6632H38.4765C38.7437 25.6632 38.9218 25.8413 38.9218 26.1085C39.0109 26.4647 38.8335 26.6429 38.4773 26.6429ZM34.1132 26.6429H31.7093V27.6226H34.0242C35.0031 27.6226 35.6265 26.9991 35.6265 26.1085C35.6265 25.2179 35.0929 24.7726 34.2023 24.7726H33.1335C32.8664 24.7726 32.6882 24.5944 32.6882 24.3272C32.6882 24.0601 32.8664 23.8819 33.1335 23.8819H35.1812L35.6265 22.9022H33.2218C32.2429 22.9022 31.6195 23.5257 31.6195 24.3272C31.6195 25.2179 32.1546 25.6632 33.0445 25.6632H34.1125C34.3804 25.6632 34.5578 25.8413 34.5578 26.1085C34.6484 26.4647 34.3812 26.6429 34.1132 26.6429ZM30.9968 23.7929V22.814H27.2578V27.5335H30.9968V26.5546H28.3257V25.5749H30.9085V24.596H28.3257V23.7054H30.9968V23.7929ZM24.9421 23.7929C25.3875 23.7929 25.5656 24.0608 25.5656 24.328C25.5656 24.5952 25.3875 24.8616 24.9421 24.8616H23.6062V23.7038L24.9421 23.7929ZM23.6062 25.8421H24.1414L25.5656 27.5335H26.9015L25.2992 25.7522C26.1 25.5741 26.5453 25.0397 26.5453 24.328C26.5453 23.4374 25.9226 22.814 24.9429 22.814H22.45V27.5335H23.5187L23.6062 25.8421ZM20.7562 24.4163C20.7562 24.7726 20.5789 25.0397 20.1335 25.0397H18.7085V23.7929H20.0445C20.4898 23.7929 20.7562 24.0608 20.7562 24.4163ZM17.6398 22.814V27.5335H18.7085V25.9312H20.1335C21.1125 25.9312 21.825 25.3077 21.825 24.3288C21.825 23.4382 21.2015 22.7265 20.2226 22.7265L17.6398 22.814ZM16.0375 27.5335H17.3734L15.5039 25.1288L17.3734 22.814H16.0375L14.8796 24.328L13.7218 22.814H12.3859L14.2554 25.1288L12.3859 27.4444H13.7218L14.8796 25.9304L16.0375 27.5335ZM12.0304 23.7929V22.814H8.29058V27.5335H12.0304V26.5546H9.35933V25.5749H11.9421V24.596H9.35933V23.7054H12.0304V23.7929ZM33.6687 15.4233L35.539 18.2733H36.875V13.553H35.8062V16.6694L35.539 16.2241L33.8468 13.553H32.4226V18.2733H33.4914V15.0671L33.6687 15.4233ZM29.0382 15.3335L29.3937 14.3546L29.75 15.3335L30.1953 16.4022H28.5937L29.0382 15.3335ZM30.9085 18.2726H32.0664L30.0187 13.5522H28.5937L26.5453 18.2726H27.7039L28.1492 17.2929H30.464L30.9085 18.2726ZM25.9218 18.2726L26.3671 17.2929H26.0992C25.2984 17.2929 24.8531 16.7593 24.8531 15.9569V15.8679C24.8531 15.0663 25.2984 14.5319 26.0992 14.5319H27.2578V13.5522H26.0109C24.5867 13.5522 23.7843 14.5319 23.7843 15.8679V15.9569C23.7843 17.3827 24.5859 18.2726 25.9218 18.2726ZM21.9148 18.2726H22.9828V13.6421H21.9148V18.2726ZM19.5992 14.5327C20.0445 14.5327 20.2226 14.7999 20.2226 15.0663C20.2226 15.3327 20.0445 15.6015 19.5992 15.6015H18.2632V14.4429L19.5992 14.5327ZM18.2632 16.5804H18.7984L20.2226 18.2726H21.5585L19.9562 16.4913C20.757 16.3132 21.2023 15.778 21.2023 15.0663C21.2023 14.1757 20.5796 13.5522 19.6 13.5522H17.107V18.2726H18.1757L18.2632 16.5804ZM16.3039 14.5327V13.553H12.5648V18.2733H16.3039V17.2937H13.6328V16.3147H16.2156V15.3351H13.6328V14.4444H16.3039V14.5327ZM8.20151 18.2726H9.18042L10.5164 14.4429V18.2726H11.5851V13.5522H9.80386L8.73511 16.7585L7.66714 13.5522H5.88589V18.2726H6.95386V14.4429L8.20151 18.2726ZM2.41323 15.3335L2.76948 14.3546L3.12495 15.3335L3.57026 16.4022H1.96792L2.41323 15.3335ZM4.28276 18.2726H5.44136L3.39292 13.5522H2.05698L0.00854492 18.2726H1.16636L1.61167 17.2929H3.92729L4.28276 18.2726Z" fill="#006FCF"/>
</g>
</svg>
