<svg width="40" height="40" viewBox="0 0 40 40" fill="none" xmlns="http://www.w3.org/2000/svg">
<path fill-rule="evenodd" clip-rule="evenodd" d="M20 40C31.0457 40 40 31.0457 40 20C40 8.9543 31.0457 0 20 0C8.9543 0 0 8.9543 0 20C0 31.0457 8.9543 40 20 40Z" fill="#DC1431"/>
<path fill-rule="evenodd" clip-rule="evenodd" d="M22.7797 15.7952C22.78 15.7953 22.7803 15.7955 22.7806 15.7956L22.7801 15.7951C22.78 15.7951 22.7798 15.7952 22.7797 15.7952ZM22.7797 15.7952C20.3559 14.6318 17.8671 13.6619 15.2813 12.854C14.3813 13.1125 13.4713 13.404 12.5982 13.694C15.2483 14.4701 17.8349 15.4721 20.3235 16.6676C20.4082 16.6359 20.4937 16.6037 20.5799 16.5713C21.2829 16.3069 22.0311 16.0255 22.7797 15.7952ZM19.0629 11.912C21.6815 12.6235 24.2351 13.5285 26.6917 14.5951V14.6006C25.8512 14.8271 24.9781 15.0856 24.1381 15.3441C21.7135 14.2071 19.1925 13.2375 16.6064 12.494C17.4167 12.2655 18.2363 12.0713 19.0629 11.912ZM15.7983 25.5254C21.0355 21.7758 26.8207 18.8017 33.0269 16.7276L33.0274 16.7326C34.0294 17.2501 34.9989 17.7997 36.001 18.4137C30.0858 20.8703 24.5906 24.1679 19.645 28.079C18.3844 27.174 17.0914 26.3334 15.7983 25.5254ZM10.8202 22.7778C16.2834 19.1567 22.3281 16.4096 28.7608 14.6966L28.7603 14.6961C29.8716 15.1867 30.9709 15.704 32.0574 16.2476C25.7217 18.1552 19.7745 21.0328 14.4403 24.7179C13.2443 24.0379 12.0487 23.3918 10.8202 22.7778ZM19.1599 17.0937L16.3479 15.8976V15.8986C13.4063 17.0297 10.5617 18.4197 7.81409 19.9713C8.75112 20.3913 9.72615 20.8438 10.6262 21.3288C13.3418 19.7118 16.2184 18.2897 19.1599 17.0937ZM4.00098 18.4462C6.80971 16.8959 9.76569 15.6288 12.8252 14.6636L12.8242 14.6651C13.6323 14.9231 14.4403 15.1821 15.2163 15.4731C12.2432 16.5397 9.36614 17.8972 6.65106 19.4812C5.77903 19.1252 4.8735 18.7692 4.00098 18.4462Z" fill="white"/>
</svg>
