<svg width="40" height="40" viewBox="0 0 40 40" fill="none" xmlns="http://www.w3.org/2000/svg">
<path fill-rule="evenodd" clip-rule="evenodd" d="M20 40C31.0457 40 40 31.0457 40 20C40 8.9543 31.0457 0 20 0C8.9543 0 0 8.9543 0 20C0 31.0457 8.9543 40 20 40Z" fill="#0F5BA7"/>
<path d="M6.5 23.8419C6.5 24.3684 6.9275 24.7982 7.454 24.7982H14.1331V7.14692L6.5 15.1851V23.8419ZM23.843 33.4967C24.3684 33.4967 24.7947 33.0692 24.7947 32.5416V25.8624H7.14462L15.1839 33.4956H23.843M33.5 16.1604C33.5003 16.0353 33.4758 15.9113 33.428 15.7956C33.3803 15.6799 33.3101 15.5748 33.2215 15.4864C33.1329 15.3979 33.0278 15.3279 32.912 15.2802C32.7963 15.2325 32.6723 15.2082 32.5471 15.2087H25.8669V32.8588L33.4966 24.8173L33.5 16.1593M16.1581 6.50342C15.9054 6.50342 15.663 6.60381 15.4843 6.78251C15.3056 6.96121 15.2052 7.20358 15.2052 7.45629V14.1388H32.8542L24.8172 6.50342H16.1581Z" fill="white"/>
</svg>
