<svg width="40" height="40" viewBox="0 0 40 40" fill="none" xmlns="http://www.w3.org/2000/svg">
<path fill-rule="evenodd" clip-rule="evenodd" d="M20 40C31.0457 40 40 31.0457 40 20C40 8.9543 31.0457 0 20 0C8.9543 0 0 8.9543 0 20C0 31.0457 8.9543 40 20 40Z" fill="#EEEEEE"/>
<path d="M23.515 13.6184H16.485V26.2501H23.515V13.6184Z" fill="#FF5F00"/>
<path d="M16.9313 19.9343C16.9313 17.3678 18.1365 15.0914 19.9888 13.6185C18.6274 12.5472 16.909 11.9 15.0343 11.9C10.5931 11.9 7 15.4932 7 19.9343C7 24.3755 10.5931 27.9687 15.0343 27.9687C16.909 27.9687 18.6274 27.3215 19.9888 26.2502C18.1365 24.7996 16.9313 22.5009 16.9313 19.9343Z" fill="#EB001B"/>
<path d="M33 19.9343C33 24.3755 29.4068 27.9687 24.9656 27.9687C23.0909 27.9687 21.3725 27.3215 20.0111 26.2502C21.8858 24.7773 23.0686 22.5009 23.0686 19.9343C23.0686 17.3678 21.8635 15.0914 20.0111 13.6185C21.3725 12.5472 23.0909 11.9 24.9656 11.9C29.4068 11.9 33 15.5155 33 19.9343Z" fill="#F79E1B"/>
</svg>
