<svg width="40" height="40" viewBox="0 0 40 40" fill="none" xmlns="http://www.w3.org/2000/svg">
<circle cx="20" cy="20" r="20" fill="white"/>
<path d="M14.4629 24.752V18.2346C14.4629 17.4471 15.1004 16.817 15.8804 16.817H29.0729C29.8604 16.817 30.4904 17.4546 30.4904 18.2346V26.9121C30.4904 27.6996 29.8529 28.3296 29.0729 28.3296H15.8804" fill="white" fill-opacity="0.6"/>
<path d="M14.4629 24.752V18.2346C14.4629 17.4471 15.1004 16.817 15.8804 16.817H29.0729C29.8604 16.817 30.4904 17.4546 30.4904 18.2346V26.9121C30.4904 27.6996 29.8529 28.3296 29.0729 28.3296H15.8804" stroke="black" stroke-width="1.25" stroke-linecap="round" stroke-linejoin="round"/>
<path d="M22.765 10.7664L10.7881 16.3157C10.0778 16.6448 9.76876 17.4874 10.0979 18.1977L13.7491 26.078C14.0782 26.7883 14.9208 27.0973 15.6311 26.7682L27.608 21.2189C28.3183 20.8898 28.6274 20.0471 28.2982 19.3368L24.647 11.4566C24.3179 10.7463 23.4753 10.4372 22.765 10.7664Z" fill="#00E5C4" stroke="black" stroke-width="1.25" stroke-linecap="round" stroke-linejoin="round"/>
<path d="M12.8496 18.0545L14.9046 17.1021" stroke="black" stroke-width="1.25" stroke-linecap="round" stroke-linejoin="round"/>
<path d="M16.2402 16.487L16.9527 16.157" stroke="black" stroke-width="1.25" stroke-linecap="round" stroke-linejoin="round"/>
<path d="M23.2013 15.4361L21.6089 16.174C21.3158 16.3098 21.1882 16.6575 21.3241 16.9507L21.9578 18.3185C22.0936 18.6116 22.4414 18.7392 22.7345 18.6034L24.3269 17.8655C24.6201 17.7297 24.7476 17.382 24.6118 17.0888L23.978 15.721C23.8422 15.4279 23.4944 15.3003 23.2013 15.4361Z" fill="white" stroke="black" stroke-width="1.25" stroke-linecap="round" stroke-linejoin="round"/>
<path d="M22.1873 23.732H30.4973V25.772H17.7773L22.1873 23.732Z" fill="black"/>
</svg>
