<svg xmlns="http://www.w3.org/2000/svg" width="11.044" height="19.030" viewBox="0 0 11.044 19.030" fill="none">
  <path d="M 11.044 12.76 C 11.044 15.092 9.174 16.566 6.6 16.808 L 6.6 19.03 L 5.06 19.03 L 5.06 16.83 C 2.53 16.632 0.286 15.4 0 11.748 L 1.848 11.594 C 2.002 13.86 3.3 14.938 5.06 15.158 L 5.06 10.142 L 4.664 10.054 C 1.936 9.482 0.792 8.096 0.792 6.116 C 0.792 3.916 2.53 2.398 5.06 2.156 L 5.06 0 L 6.6 0 L 6.6 2.178 C 9.24 2.486 10.934 4.136 10.934 6.688 L 9.13 6.886 C 9.13 4.928 8.03 4.07 6.6 3.85 L 6.6 8.668 L 6.732 8.69 C 9.746 9.35 11.044 10.604 11.044 12.76 Z M 2.64 6.05 C 2.64 7.128 3.234 7.832 5.06 8.316 L 5.06 3.828 C 3.63 4.026 2.64 4.862 2.64 6.05 Z M 9.196 12.826 C 9.196 11.616 8.206 10.912 6.6 10.472 L 6.6 15.136 C 8.008 14.938 9.196 14.168 9.196 12.826 Z" fill="currentColor" fill-rule="nonzero"/>
</svg>
