<svg xmlns="http://www.w3.org/2000/svg" width="13.510" height="17.840" viewBox="0 0 13.510 17.840" fill="none">
  <path d="M 12.75 7.915 C 12.34 7.915 12 8.255 12 8.665 L 12 12.915 C 12 13.605 11.44 14.165 10.75 14.165 L 5.45 14.165 L 5.45 12.665 C 5.45 12.075 4.74 11.775 4.32 12.185 L 2.4 14.035 C 1.95 14.465 1.94 15.175 2.37 15.625 L 4.31 17.635 C 4.73 18.065 5.46 17.775 5.46 17.175 L 5.46 15.675 L 10.76 15.675 C 12.28 15.675 13.51 14.445 13.51 12.925 L 13.51 8.675 C 13.51 8.265 13.17 7.925 12.76 7.925 L 12.75 7.915 Z" fill="currentColor" fill-rule="nonzero"/>
  <path d="M 8.05 3.665 L 8.05 5.165 C 8.05 5.755 8.76 6.055 9.18 5.645 L 11.1 3.795 C 11.55 3.365 11.56 2.655 11.13 2.205 L 9.2 0.205 C 8.78 -0.225 8.05 0.065 8.05 0.665 L 8.05 2.165 L 2.75 2.165 C 1.23 2.165 0 3.395 0 4.915 L 0 9.165 C 0 9.575 0.34 9.915 0.75 9.915 C 1.16 9.915 1.5 9.575 1.5 9.165 L 1.5 4.915 C 1.5 4.225 2.06 3.665 2.75 3.665 L 8.05 3.665 Z" fill="currentColor" fill-rule="nonzero"/>
</svg>
