<svg xmlns="http://www.w3.org/2000/svg" width="16.611" height="17.500" viewBox="0 0 16.611 17.500" fill="none">
  <path d="M 5.333 14.083 C 5.333 13.558 5.121 13.083 4.779 12.737 C 4.776 12.735 4.773 12.732 4.771 12.729 C 4.767 12.726 4.765 12.723 4.762 12.72 C 4.416 12.378 3.941 12.167 3.417 12.167 C 2.359 12.167 1.5 13.025 1.5 14.083 C 1.5 15.142 2.358 16 3.417 16 C 4.475 16 5.333 15.141 5.333 14.083 Z M 10.25 10.25 C 10.525 9.975 10.958 9.958 11.253 10.198 L 11.311 10.25 L 16.392 15.331 L 16.443 15.388 C 16.683 15.682 16.666 16.117 16.392 16.392 C 16.117 16.666 15.682 16.683 15.388 16.443 L 15.331 16.392 L 10.25 11.311 L 10.198 11.253 C 9.958 10.958 9.975 10.525 10.25 10.25 Z M 5.333 3.417 C 5.333 2.359 4.475 1.5 3.417 1.5 C 2.358 1.5 1.5 2.358 1.5 3.417 C 1.5 4.475 2.359 5.333 3.417 5.333 C 4.475 5.333 5.333 4.475 5.333 3.417 Z M 6.833 3.417 C 6.833 4.089 6.639 4.715 6.304 5.243 L 8.75 7.689 L 15.331 1.108 C 15.624 0.816 16.099 0.816 16.392 1.108 C 16.684 1.401 16.684 1.876 16.392 2.169 L 6.304 12.256 C 6.639 12.784 6.833 13.411 6.833 14.083 C 6.833 15.97 5.304 17.5 3.417 17.5 C 1.53 17.5 0 15.97 0 14.083 C 0 12.196 1.53 10.667 3.417 10.667 C 4.089 10.667 4.715 10.861 5.243 11.195 L 7.689 8.75 L 5.243 6.304 C 4.715 6.639 4.089 6.833 3.417 6.833 C 1.53 6.833 0 5.304 0 3.417 C 0 1.53 1.53 0 3.417 0 C 5.304 0 6.833 1.53 6.833 3.417 Z" fill="currentColor" fill-rule="nonzero"/>
</svg>
