<svg xmlns="http://www.w3.org/2000/svg" width="16" height="16" viewBox="0 0 16 16" fill="none">
  <path d="M 12.427 14.864 C 11.151 15.621 9.561 16 8.029 16 C 3.573 16 0 12.686 0 8.047 C 0 3.408 3.416 0 8.069 0 C 12.682 0 16 3.389 16 7.707 C 16 9.524 14.92 12.043 12.388 12.043 C 11.347 12.043 10.523 11.55 10.11 10.793 C 9.58 11.512 8.795 11.986 7.735 11.986 C 5.693 11.986 4.064 10.528 4.064 8.028 C 4.064 5.529 5.87 4.166 7.676 4.166 C 8.599 4.166 9.325 4.507 9.836 5.093 L 9.875 4.26 L 11.347 4.26 L 11.347 9.449 C 11.347 10.187 11.818 10.641 12.407 10.641 C 13.683 10.641 14.39 9.316 14.39 7.782 C 14.39 4.166 11.779 1.42 8.069 1.42 C 4.299 1.42 1.59 4.185 1.59 8.047 C 1.59 11.891 4.456 14.58 8.029 14.58 C 9.325 14.58 10.68 14.201 11.76 13.595 L 12.427 14.864 Z M 5.674 8.047 C 5.674 9.657 6.694 10.528 7.872 10.528 C 8.638 10.528 9.463 9.998 9.796 9.013 L 9.796 7.252 C 9.521 6.249 8.736 5.624 7.872 5.624 C 6.616 5.624 5.674 6.495 5.674 8.047 Z" fill="currentColor" fill-rule="nonzero"/>
</svg>
