<svg xmlns="http://www.w3.org/2000/svg" width="17.841" height="17.140" viewBox="0 0 17.841 17.140" fill="none">
  <path d="M 13.353 17.14 C 12.993 17.14 12.543 17.04 12.023 16.77 L 9.353 15.36 C 9.143 15.25 8.703 15.25 8.493 15.36 L 5.823 16.76 C 4.593 17.41 3.813 17.07 3.453 16.81 C 3.093 16.55 2.533 15.91 2.773 14.55 L 3.293 11.53 C 3.333 11.33 3.203 10.95 3.053 10.8 L 0.863 8.66 C -0.137 7.69 -0.057 6.84 0.083 6.42 C 0.223 6 0.653 5.27 2.023 5.07 L 5.063 4.63 C 5.263 4.6 5.593 4.36 5.683 4.18 L 7.043 1.43 C 7.653 0.19 8.483 0 8.923 0 C 9.363 0 10.193 0.19 10.803 1.43 L 12.163 4.18 C 12.253 4.37 12.583 4.6 12.783 4.63 L 15.823 5.07 C 17.203 5.27 17.633 6 17.763 6.42 C 17.893 6.84 17.983 7.68 16.983 8.65 L 14.783 10.79 C 14.633 10.93 14.513 11.32 14.543 11.52 L 15.063 14.54 C 15.303 15.91 14.733 16.55 14.383 16.8 C 14.183 16.95 13.833 17.12 13.343 17.12 L 13.353 17.14 Z M 10.043 14.03 C 9.723 13.86 9.323 13.78 8.923 13.78 L 8.943 13.79 C 8.533 13.79 8.133 13.87 7.813 14.04 L 5.143 15.44 C 4.703 15.66 4.433 15.66 4.353 15.6 C 4.263 15.54 4.183 15.28 4.263 14.8 L 4.783 11.78 C 4.903 11.09 4.613 10.21 4.113 9.72 L 1.913 7.58 C 1.563 7.24 1.483 6.97 1.513 6.88 C 1.543 6.78 1.763 6.62 2.243 6.55 L 5.283 6.11 C 5.973 6.01 6.723 5.46 7.033 4.84 L 8.393 2.09 C 8.613 1.66 8.833 1.5 8.933 1.5 C 9.033 1.5 9.263 1.65 9.473 2.09 L 10.833 4.84 C 11.143 5.46 11.893 6.01 12.583 6.11 L 15.613 6.55 C 16.093 6.62 16.313 6.79 16.343 6.88 C 16.373 6.98 16.293 7.24 15.943 7.58 L 13.743 9.72 C 13.243 10.21 12.953 11.09 13.073 11.78 L 13.593 14.8 C 13.673 15.28 13.583 15.54 13.503 15.6 C 13.423 15.66 13.143 15.67 12.713 15.44 L 10.043 14.03 Z" fill="currentColor" fill-rule="evenodd"/>
</svg>
