<svg xmlns="http://www.w3.org/2000/svg" width="13.430" height="17.040" viewBox="0 0 13.430 17.040" fill="none">
  <path d="M 1.94 17.03 C 1.66 17.03 1.38 16.97 1.12 16.85 C 0.44 16.53 0 15.84 0 15.08 L 0 2.75 C -0.01 1.23 1.22 0 2.74 0 L 10.68 0 C 12.2 0 13.43 1.23 13.43 2.75 L 13.43 15.08 C 13.43 15.84 12.99 16.53 12.3 16.85 C 11.62 17.17 10.8 17.06 10.22 16.58 L 7 13.88 C 6.83 13.74 6.59 13.74 6.42 13.88 L 3.18 16.59 C 2.82 16.89 2.38 17.04 1.93 17.04 L 1.94 17.03 Z M 2.74 1.5 C 2.05 1.5 1.49 2.06 1.49 2.75 L 1.49 15.09 C 1.49 15.26 1.59 15.42 1.75 15.5 C 1.91 15.57 2.09 15.55 2.23 15.44 L 5.47 12.73 C 6.2 12.12 7.25 12.12 7.97 12.73 L 11.19 15.43 C 11.32 15.54 11.51 15.57 11.67 15.49 C 11.83 15.42 11.93 15.26 11.93 15.08 L 11.93 2.75 C 11.93 2.06 11.37 1.5 10.68 1.5 L 2.74 1.5 Z" fill="currentColor" fill-rule="nonzero"/>
</svg>
