<svg xmlns="http://www.w3.org/2000/svg" width="19.894" height="13.230" viewBox="0 0 19.894 13.230" fill="none">
  <path d="M 2.13 10.42 C 2.13 11.97 3.39 13.23 4.94 13.23 C 5.758 13.23 6.495 12.879 7.009 12.32 L 9.94 12.32 C 10.35 12.32 10.69 11.98 10.69 11.57 C 10.69 11.16 10.35 10.82 9.94 10.82 L 7.722 10.82 C 7.74 10.689 7.75 10.556 7.75 10.42 C 7.75 8.87 6.49 7.61 4.94 7.61 C 3.39 7.61 2.13 8.87 2.13 10.42 Z M 3.63 10.42 C 3.63 9.7 4.22 9.11 4.94 9.11 C 5.66 9.11 6.25 9.7 6.25 10.42 C 6.25 11.14 5.66 11.73 4.94 11.73 C 4.22 11.73 3.63 11.14 3.63 10.42 Z" fill="currentColor" fill-rule="nonzero"/>
  <path d="M 17.12 12.32 L 16.269 12.32 C 15.755 12.879 15.018 13.23 14.2 13.23 C 12.65 13.23 11.39 11.97 11.39 10.42 C 11.39 8.87 12.65 7.61 14.2 7.61 C 15.75 7.61 17.01 8.87 17.01 10.42 C 17.01 10.556 17 10.689 16.982 10.82 L 17.12 10.82 C 17.63 10.82 18.01 10.38 18.2 9.97 C 18.47 9.38 18.54 8.41 17.86 7.62 L 15.35 4.74 C 14.05 3.24 11.9 1.5 10.16 1.5 L 6.27 1.5 C 5.078 1.5 4.112 1.862 3.362 2.333 L 4.11 3.9 C 4.32 4.34 4.91 4.81 5.35 4.88 L 11.6 5.97 C 12.01 6.04 12.28 6.43 12.21 6.84 C 12.15 7.2 11.83 7.46 11.47 7.46 C 11.47 7.46 11.38 7.46 11.34 7.45 L 5.09 6.36 C 4.18 6.2 3.18 5.42 2.76 4.55 L 2.171 3.317 C 2.161 3.328 2.15 3.339 2.14 3.35 C 1.73 3.79 1.5 4.42 1.5 5.08 L 1.5 9.5 C 1.5 9.91 1.16 10.25 0.75 10.25 C 0.34 10.25 0 9.91 0 9.5 L 0 5.08 C 0 4.05 0.38 3.05 1.04 2.33 C 2.03 1.27 3.74 0 6.27 0 L 10.16 0 C 12.98 0 15.71 2.88 16.48 3.76 L 18.99 6.64 C 19.94 7.72 20.16 9.28 19.56 10.59 C 19.07 11.66 18.14 12.32 17.12 12.32 Z M 14.2 9.11 C 13.48 9.11 12.89 9.7 12.89 10.42 C 12.89 11.14 13.48 11.73 14.2 11.73 C 14.92 11.73 15.51 11.14 15.51 10.42 C 15.51 9.7 14.92 9.11 14.2 9.11 Z" fill="currentColor" fill-rule="nonzero"/>
</svg>
