<svg xmlns="http://www.w3.org/2000/svg" width="17.841" height="17.140" viewBox="0 0 17.841 17.140" fill="none">
  <path d="M 12.023 16.77 C 12.543 17.04 12.993 17.14 13.353 17.14 L 13.343 17.12 C 13.833 17.12 14.183 16.95 14.383 16.8 C 14.733 16.55 15.303 15.91 15.063 14.54 L 14.543 11.52 C 14.513 11.32 14.633 10.93 14.783 10.79 L 16.983 8.65 C 17.983 7.68 17.893 6.84 17.763 6.42 C 17.633 6 17.203 5.27 15.823 5.07 L 12.783 4.63 C 12.583 4.6 12.253 4.37 12.163 4.18 L 10.803 1.43 C 10.193 0.19 9.363 0 8.923 0 C 8.483 0 7.653 0.19 7.043 1.43 L 5.683 4.18 C 5.593 4.36 5.263 4.6 5.063 4.63 L 2.023 5.07 C 0.653 5.27 0.223 6 0.083 6.42 C -0.057 6.84 -0.137 7.69 0.863 8.66 L 3.053 10.8 C 3.203 10.95 3.333 11.33 3.293 11.53 L 2.773 14.55 C 2.533 15.91 3.093 16.55 3.453 16.81 C 3.813 17.07 4.593 17.41 5.823 16.76 L 8.493 15.36 C 8.703 15.25 9.143 15.25 9.353 15.36 L 12.023 16.77 Z" fill="currentColor" fill-rule="nonzero"/>
</svg>
