<svg xmlns="http://www.w3.org/2000/svg" width="19.940" height="14.820" viewBox="0 0 19.940 14.820" fill="none">
  <path d="M 15.54 12 C 15.69 12.15 15.88 12.22 16.07 12.22 C 16.26 12.22 16.45 12.15 16.6 12 C 16.89 11.71 16.89 11.23 16.6 10.94 L 16.02 10.36 C 15.73 10.07 15.25 10.07 14.96 10.36 C 14.67 10.65 14.67 11.13 14.96 11.42 L 15.54 12 Z" fill="currentColor" fill-rule="nonzero"/>
  <path d="M 0 11.96 C 0 13.54 1.28 14.82 2.86 14.82 L 17.08 14.82 C 18.66 14.82 19.94 13.54 19.94 11.96 L 19.94 2.86 C 19.94 1.28 18.66 0 17.08 0 L 2.86 0 C 1.28 0 0 1.28 0 2.86 L 0 11.96 Z M 11.87 13.32 L 2.86 13.32 C 2.11 13.32 1.5 12.71 1.5 11.96 L 1.5 9.13 L 8.41 9.13 C 8.82 9.13 9.16 8.79 9.16 8.38 C 9.16 7.97 8.82 7.63 8.41 7.63 L 1.5 7.63 L 1.5 2.86 C 1.5 2.11 2.11 1.5 2.86 1.5 L 11.87 1.5 L 11.87 3.044 C 11.496 2.77 11.063 2.615 10.6 2.6 C 9.71 2.58 8.9 3.05 8.48 3.82 C 8.07 4.59 8.14 5.48 8.68 6.26 C 9.261 7.097 10.43 7.789 11.292 8.218 L 8.57 10.94 C 8.28 11.23 8.28 11.71 8.57 12 C 8.72 12.15 8.91 12.22 9.1 12.22 C 9.29 12.22 9.48 12.15 9.63 12 L 11.87 9.76 L 11.87 13.32 Z M 13.37 13.32 L 13.37 9.13 L 18.44 9.13 L 18.44 11.96 C 18.44 12.71 17.83 13.32 17.08 13.32 L 13.37 13.32 Z M 18.44 7.63 L 15.335 7.63 C 15.843 7.337 16.321 6.988 16.65 6.59 C 17.26 5.86 17.41 4.99 17.06 4.19 C 16.72 3.39 15.92 2.84 15.05 2.79 C 14.436 2.757 13.853 2.973 13.37 3.399 L 13.37 1.5 L 17.08 1.5 C 17.83 1.5 18.44 2.11 18.44 2.86 L 18.44 7.63 Z M 11.87 6.82 C 11.14 6.45 10.28 5.93 9.92 5.4 C 9.71 5.1 9.67 4.8 9.81 4.54 C 9.95 4.28 10.25 4.1 10.54 4.1 L 10.54 4.09 L 10.56 4.09 C 11 4.11 11.27 4.5 11.42 4.82 C 11.73 5.47 11.84 6.22 11.87 6.82 Z M 14.91 4.28 L 14.97 4.28 C 15.27 4.29 15.57 4.5 15.69 4.78 C 15.8 5.06 15.74 5.34 15.5 5.63 C 15.08 6.13 14.18 6.58 13.41 6.89 C 13.49 6.3 13.66 5.56 14.02 4.93 C 14.19 4.63 14.49 4.28 14.91 4.28 Z" fill="currentColor" fill-rule="nonzero"/>
</svg>
