<svg xmlns="http://www.w3.org/2000/svg" width="18.502" height="18.501" viewBox="0 0 18.502 18.501" fill="none">
  <path d="M 13.021 13.771 C 12.831 13.771 12.641 13.701 12.491 13.551 L 8.721 9.781 C 8.581 9.641 8.501 9.451 8.501 9.251 L 8.501 5.241 C 8.501 4.831 8.841 4.491 9.251 4.491 C 9.661 4.491 10.001 4.831 10.001 5.241 L 10.001 8.951 L 13.551 12.501 C 13.841 12.791 13.841 13.271 13.551 13.561 C 13.401 13.711 13.211 13.781 13.021 13.781 L 13.021 13.771 Z" fill="currentColor" fill-rule="nonzero"/>
  <path d="M 5.841 17.851 C 6.961 18.291 8.111 18.501 9.241 18.501 C 12.921 18.501 16.411 16.291 17.851 12.661 C 19.731 7.921 17.401 2.531 12.661 0.651 C 9.223 -0.71 5.322 0.101 2.722 2.72 L 1.821 1.841 L 1.831 1.841 C 1.461 1.481 0.841 1.731 0.841 2.251 L 0.821 4.581 C 0.811 5.121 1.251 5.571 1.791 5.571 L 4.231 5.591 C 4.751 5.601 5.021 4.961 4.641 4.591 L 3.795 3.767 C 5.985 1.588 9.239 0.923 12.111 2.061 C 16.081 3.631 18.031 8.151 16.461 12.121 C 14.891 16.091 10.371 18.041 6.401 16.471 C 3.311 15.241 1.351 12.201 1.511 8.891 C 1.531 8.471 1.211 8.121 0.801 8.101 C 0.391 8.081 0.031 8.401 0.011 8.811 C -0.179 12.761 2.171 16.391 5.841 17.851 Z" fill="currentColor" fill-rule="nonzero"/>
</svg>
