<svg xmlns="http://www.w3.org/2000/svg" width="23.488" height="21.272" viewBox="0 0 23.488 21.272" fill="none">
  <path d="M 15.124 18.063 C 14.714 18.063 14.374 17.722 14.374 17.313 L 14.374 12.462 C 14.374 11.532 13.614 10.772 12.684 10.772 L 10.814 10.772 C 9.884 10.772 9.124 11.532 9.124 12.462 L 9.124 17.313 C 9.124 17.722 8.784 18.063 8.374 18.063 C 7.964 18.063 7.624 17.722 7.624 17.313 L 7.624 12.462 C 7.624 10.702 9.054 9.272 10.814 9.272 L 12.684 9.272 C 14.444 9.272 15.874 10.702 15.874 12.462 L 15.874 17.313 C 15.874 17.722 15.534 18.063 15.124 18.063 Z" fill="currentColor" fill-rule="evenodd"/>
  <path d="M 22.294 8.982 C 22.424 9.082 22.584 9.132 22.744 9.132 L 22.734 9.142 C 22.964 9.142 23.184 9.032 23.334 8.842 C 23.584 8.512 23.524 8.042 23.194 7.793 L 20.976 6.108 C 20.937 6.071 20.894 6.038 20.847 6.01 L 13.874 0.712 C 12.614 -0.238 10.864 -0.238 9.614 0.712 L 2.641 6.01 C 2.594 6.038 2.551 6.071 2.512 6.108 L 0.294 7.793 C -0.036 8.042 -0.096 8.512 0.154 8.842 C 0.404 9.172 0.874 9.232 1.204 8.982 L 2.274 8.17 L 2.274 18.083 C 2.274 19.843 3.704 21.272 5.464 21.272 L 18.024 21.272 L 18.024 21.262 C 19.784 21.262 21.214 19.833 21.214 18.073 L 21.214 8.162 L 22.294 8.982 Z M 3.774 7.03 L 3.774 6.652 C 3.774 6.242 3.434 5.903 3.024 5.903 C 2.885 5.903 2.753 5.942 2.641 6.01 L 2.512 6.108 C 2.366 6.245 2.274 6.439 2.274 6.652 L 2.274 8.17 L 3.774 7.03 Z M 3.774 7.03 L 10.524 1.902 C 11.244 1.352 12.254 1.352 12.974 1.902 L 19.714 7.023 L 19.714 18.073 C 19.714 19.003 18.954 19.762 18.024 19.762 L 5.464 19.762 C 4.534 19.762 3.774 19.003 3.774 18.073 L 3.774 7.03 Z" fill="currentColor" fill-rule="evenodd"/>
  <path d="M 3.774 6.652 C 3.774 6.242 3.434 5.903 3.024 5.903 C 2.885 5.903 2.753 5.942 2.641 6.01 L 2.512 6.108 C 2.366 6.245 2.274 6.439 2.274 6.652 L 2.274 8.17 L 3.774 7.03 L 3.774 6.652 Z" fill="currentColor" fill-rule="evenodd"/>
</svg>
