<svg xmlns="http://www.w3.org/2000/svg" width="17.500" height="17.500" viewBox="0 0 17.500 17.500" fill="none">
  <path d="M 8.75 1.5 C 4.746 1.5 1.5 4.746 1.5 8.75 C 1.5 12.754 4.746 16 8.75 16 C 12.754 16 16 12.754 16 8.75 C 16 4.746 12.754 1.5 8.75 1.5 Z M 0 8.75 C 0 3.918 3.918 0 8.75 0 C 13.582 0 17.5 3.918 17.5 8.75 C 17.5 13.582 13.582 17.5 8.75 17.5 C 3.918 17.5 0 13.582 0 8.75 Z" fill="currentColor" fill-rule="nonzero"/>
  <path d="M 7.72 5.11 C 7.72 4.54 8.17 4.1 8.75 4.1 C 9.33 4.1 9.79 4.54 9.79 5.11 C 9.79 5.68 9.35 6.14 8.75 6.14 C 8.15 6.14 7.72 5.7 7.72 5.11 Z M 7.86 6.91 L 9.64 6.91 L 9.64 13.07 L 7.86 13.07 L 7.86 6.91 Z" fill="currentColor" fill-rule="nonzero"/>
</svg>
