<svg xmlns="http://www.w3.org/2000/svg" width="19.500" height="19.472" viewBox="0 0 19.500 19.472" fill="none">
  <path d="M 6.14 14.143 C 6.27 14.253 6.44 14.313 6.61 14.313 L 6.61 14.303 C 6.83 14.303 7.04 14.213 7.19 14.033 L 13.48 6.343 C 13.74 6.013 13.69 5.543 13.37 5.283 C 13.06 5.023 12.58 5.073 12.32 5.393 L 6.03 13.083 C 5.77 13.413 5.82 13.883 6.14 14.143 Z" fill="currentColor" fill-rule="nonzero"/>
  <path d="M 12.36 14.313 C 11.13 14.313 10.14 13.313 10.14 12.093 C 10.14 10.873 11.14 9.863 12.36 9.863 C 13.58 9.863 14.58 10.863 14.58 12.093 C 14.58 13.323 13.58 14.313 12.36 14.313 Z M 12.36 11.363 C 11.96 11.363 11.64 11.693 11.64 12.093 C 11.64 12.493 11.97 12.813 12.36 12.813 C 12.75 12.813 13.08 12.483 13.08 12.093 C 13.08 11.703 12.75 11.363 12.36 11.363 Z" fill="currentColor" fill-rule="nonzero"/>
  <path d="M 4.91 7.343 C 4.91 8.573 5.9 9.573 7.13 9.573 C 8.35 9.573 9.35 8.563 9.35 7.343 C 9.35 6.123 8.35 5.123 7.13 5.123 C 5.91 5.123 4.91 6.113 4.91 7.343 Z M 6.41 7.343 C 6.41 6.953 6.73 6.623 7.13 6.623 C 7.52 6.623 7.85 6.943 7.85 7.343 C 7.85 7.743 7.52 8.073 7.13 8.073 C 6.74 8.073 6.41 7.733 6.41 7.343 Z" fill="currentColor" fill-rule="nonzero"/>
  <path d="M 7.78 18.642 C 8.299 19.171 8.997 19.471 9.745 19.472 L 9.74 19.472 L 9.75 19.472 L 9.745 19.472 C 10.493 19.471 11.191 19.181 11.71 18.642 L 12.14 18.202 C 12.55 17.792 13.44 17.423 14.02 17.423 L 14.66 17.423 C 15.39 17.433 16.11 17.142 16.64 16.612 C 17.17 16.082 17.46 15.382 17.44 14.632 L 17.44 14.012 C 17.44 13.432 17.81 12.533 18.23 12.123 L 18.67 11.693 C 19.2 11.173 19.5 10.472 19.5 9.722 C 19.5 8.972 19.21 8.273 18.67 7.753 L 18.23 7.323 C 17.81 6.923 17.44 6.012 17.45 5.432 L 17.45 4.813 C 17.45 4.063 17.16 3.352 16.64 2.832 C 16.12 2.313 15.43 2.023 14.69 2.023 L 14.03 2.023 C 13.44 2.023 12.55 1.652 12.15 1.242 L 11.72 0.803 C 10.67 -0.268 8.83 -0.268 7.78 0.803 L 7.35 1.242 C 6.94 1.652 6.05 2.023 5.47 2.023 L 4.83 2.023 C 4.07 2.013 3.38 2.303 2.85 2.832 C 2.32 3.362 2.03 4.063 2.05 4.813 L 2.05 5.432 C 2.06 6.012 1.69 6.913 1.27 7.323 L 0.83 7.753 C 0.3 8.273 0 8.972 0 9.722 C 0 10.472 0.29 11.173 0.83 11.693 L 1.27 12.123 C 1.69 12.523 2.06 13.432 2.05 14.012 L 2.05 14.632 C 2.05 15.382 2.33 16.082 2.86 16.612 C 3.38 17.132 4.07 17.423 4.81 17.423 L 5.47 17.423 C 6.06 17.423 6.95 17.792 7.35 18.202 L 7.78 18.642 Z M 8.42 17.153 C 7.73 16.443 6.47 15.913 5.47 15.913 L 5.47 15.923 L 4.82 15.923 C 4.45 15.903 4.16 15.792 3.92 15.552 C 3.68 15.313 3.55 14.993 3.56 14.653 L 3.56 14.033 C 3.57 13.033 3.04 11.752 2.32 11.052 L 1.88 10.623 C 1.63 10.383 1.5 10.063 1.5 9.722 C 1.5 9.382 1.63 9.063 1.88 8.823 L 2.32 8.392 C 3.04 7.693 3.57 6.412 3.55 5.412 L 3.55 4.793 C 3.55 4.452 3.68 4.132 3.92 3.892 C 4.16 3.652 4.47 3.523 4.81 3.523 L 5.48 3.523 C 6.48 3.523 7.74 2.993 8.43 2.283 L 8.86 1.842 C 9.34 1.352 10.18 1.352 10.66 1.842 L 11.09 2.283 C 11.79 3.003 13.1 3.523 14.07 3.513 L 14.69 3.513 C 15.04 3.513 15.35 3.643 15.59 3.883 C 15.83 4.122 15.96 4.443 15.95 4.783 L 15.95 5.403 C 15.94 6.403 16.47 7.682 17.19 8.382 L 17.63 8.813 C 17.88 9.052 18.01 9.372 18.01 9.712 C 18.01 10.052 17.88 10.373 17.63 10.613 L 17.19 11.043 C 16.47 11.733 15.94 13.023 15.96 14.023 L 15.96 14.642 C 15.96 14.983 15.83 15.302 15.59 15.542 C 15.35 15.782 15.04 15.913 14.7 15.913 L 14.03 15.913 C 13.03 15.913 11.77 16.443 11.08 17.153 L 10.65 17.593 C 10.17 18.083 9.33 18.083 8.85 17.593 L 8.42 17.153 Z" fill="currentColor" fill-rule="nonzero"/>
</svg>
