<svg xmlns="http://www.w3.org/2000/svg" width="16.410" height="17.500" viewBox="0 0 16.410 17.500" fill="none">
  <path d="M 9.49 7.89 L 3.81 7.89 C 3.4 7.89 3.06 7.55 3.06 7.14 C 3.06 6.73 3.4 6.39 3.81 6.39 L 9.49 6.39 C 9.9 6.39 10.24 6.73 10.24 7.14 C 10.24 7.55 9.9 7.89 9.49 7.89 Z" fill="currentColor" fill-rule="nonzero"/>
  <path d="M 3.81 11.1 L 7.38 11.1 C 7.79 11.1 8.13 10.76 8.13 10.35 C 8.13 9.94 7.79 9.6 7.38 9.6 L 3.81 9.6 C 3.4 9.6 3.06 9.94 3.06 10.35 C 3.06 10.76 3.4 11.1 3.81 11.1 Z" fill="currentColor" fill-rule="nonzero"/>
  <path d="M 10 17.5 L 10.01 17.5 C 10.74 17.5 11.43 17.22 11.95 16.7 C 12.47 16.19 12.76 15.48 12.76 14.75 L 12.76 3.75 C 12.76 3.07 12.86 1.5 13.83 1.5 L 13.835 1.5 L 13.84 1.5 C 14.81 1.5 14.91 3.07 14.91 3.75 L 14.91 7.05 L 14.23 7.05 C 13.82 7.05 13.48 7.39 13.48 7.8 C 13.48 8.21 13.82 8.55 14.23 8.55 L 15.66 8.55 C 16.07 8.55 16.41 8.21 16.41 7.8 L 16.41 3.75 C 16.41 1.4 15.45 0 13.84 0 L 13.835 0 L 13.83 0 L 3.75 0 C 1.68 0 0 1.68 0 3.75 L 0 16.72 C 0 17.13 0.34 17.47 0.75 17.47 L 10 17.5 Z M 10.89 15.64 C 10.66 15.87 10.34 16 10.01 16 L 10 16 L 1.5 15.97 L 1.5 3.75 C 1.5 2.51 2.51 1.5 3.75 1.5 L 11.66 1.5 C 11.4 2.1 11.26 2.85 11.26 3.75 L 11.26 14.75 C 11.26 15.08 11.12 15.41 10.89 15.64 Z" fill="currentColor" fill-rule="nonzero"/>
</svg>
