<svg xmlns="http://www.w3.org/2000/svg" width="19.284" height="18.640" viewBox="0 0 19.284 18.640" fill="none">
  <path d="M 0 9.32 C 0 14.458 4.177 18.637 9.315 18.64 C 12.463 18.638 15.381 17.069 17.11 14.43 C 17.34 14.08 17.25 13.62 16.9 13.39 C 16.55 13.17 16.09 13.26 15.86 13.61 C 14.41 15.82 11.96 17.14 9.32 17.14 C 5.01 17.14 1.5 13.63 1.5 9.32 C 1.5 5.01 5.01 1.5 9.32 1.5 C 11.92 1.5 14.35 2.79 15.81 4.95 C 16.04 5.29 16.51 5.38 16.85 5.15 C 17.19 4.92 17.28 4.45 17.05 4.11 C 15.31 1.54 12.42 0 9.32 0 C 4.18 0 0 4.18 0 9.32 Z" fill="currentColor" fill-rule="nonzero"/>
  <path d="M 8.57 13.892 C 7.091 13.624 5.77 12.573 5.77 10.98 C 5.77 10.57 6.11 10.23 6.52 10.23 C 6.93 10.23 7.27 10.57 7.27 10.98 C 7.27 11.99 8.49 12.46 9.32 12.46 C 10.1 12.46 11.33 12.14 11.33 11.28 C 11.33 10.54 10.78 10.29 9.14 9.9 C 7.81 9.59 5.99 9.16 5.99 7.31 C 5.99 5.741 7.183 4.906 8.54 4.688 L 8.54 3.9 C 8.54 3.49 8.88 3.15 9.29 3.15 C 9.7 3.15 10.04 3.49 10.04 3.9 L 10.04 4.687 C 11.591 4.929 12.58 5.925 12.58 7.31 C 12.58 7.72 12.24 8.06 11.83 8.06 C 11.42 8.06 11.08 7.72 11.08 7.31 C 11.08 6.18 9.58 6.13 9.28 6.13 C 8.56 6.13 7.49 6.44 7.49 7.31 C 7.49 7.88 7.99 8.09 9.48 8.44 C 10.89 8.77 12.83 9.23 12.83 11.28 C 12.83 12.786 11.534 13.677 10.07 13.903 L 10.07 14.73 C 10.07 15.14 9.73 15.48 9.32 15.48 C 8.91 15.48 8.57 15.14 8.57 14.73 L 8.57 13.892 Z" fill="currentColor" fill-rule="nonzero"/>
  <path d="M 16.31 8.53 L 16.31 7.31 C 16.31 6.78 16.95 6.52 17.32 6.9 L 19.01 8.66 C 19.39 9.05 19.37 9.67 18.98 10.05 L 17.3 11.67 C 16.93 12.03 16.31 11.76 16.31 11.25 L 16.31 10.03 L 14.83 10.03 C 14.42 10.03 14.08 9.69 14.08 9.28 C 14.08 8.87 14.42 8.53 14.83 8.53 L 16.31 8.53 Z" fill="currentColor" fill-rule="nonzero"/>
</svg>
