<svg xmlns="http://www.w3.org/2000/svg" width="14.020" height="17.450" viewBox="0 0 14.020 17.450" fill="none">
  <path d="M 2.68 4.33 C 2.68 6.72 4.62 8.66 7.01 8.66 C 9.4 8.66 11.34 6.72 11.34 4.33 C 11.34 1.94 9.4 0 7.01 0 C 4.62 0 2.68 1.94 2.68 4.33 Z M 4.18 4.33 C 4.18 2.77 5.45 1.5 7.01 1.5 C 8.57 1.5 9.84 2.77 9.84 4.33 C 9.84 5.89 8.57 7.16 7.01 7.16 C 5.45 7.16 4.18 5.89 4.18 4.33 Z" fill="currentColor" fill-rule="nonzero"/>
  <path d="M 0 14.94 C 0 16.32 1.13 17.45 2.51 17.45 L 11.51 17.45 C 12.89 17.45 14.02 16.32 14.02 14.94 C 14.02 9.96 8.74 9.96 7.01 9.96 C 5.28 9.96 0 9.96 0 14.94 Z M 1.5 14.94 C 1.5 13.22 2.15 11.46 7.01 11.46 C 11.87 11.46 12.52 13.22 12.52 14.94 C 12.52 15.5 12.07 15.95 11.51 15.95 L 2.51 15.95 C 1.95 15.95 1.5 15.5 1.5 14.94 Z" fill="currentColor" fill-rule="nonzero"/>
</svg>
